<?xml version="1.0" encoding="UTF-8" standalone="no"?>
<!-- Created with Inkscape (http://www.inkscape.org/) -->

<svg
   xmlns:dc="http://purl.org/dc/elements/1.1/"
   xmlns:cc="http://creativecommons.org/ns#"
   xmlns:rdf="http://www.w3.org/1999/02/22-rdf-syntax-ns#"
   xmlns:svg="http://www.w3.org/2000/svg"
   xmlns="http://www.w3.org/2000/svg"
   xmlns:sodipodi="http://sodipodi.sourceforge.net/DTD/sodipodi-0.dtd"
   xmlns:inkscape="http://www.inkscape.org/namespaces/inkscape"
   width="238.26369mm"
   height="184.63713mm"
   viewBox="0 0 844.24141 654.22605"
   id="svg2"
   version="1.1"
   inkscape:version="0.91 r"
   sodipodi:docname="rawrtc-logo.svg">
  <title
     id="title4219">Rawr Dinosaur</title>
  <defs
     id="defs4" />
  <sodipodi:namedview
     id="base"
     pagecolor="#ffffff"
     bordercolor="#666666"
     borderopacity="1.0"
     inkscape:pageopacity="0.0"
     inkscape:pageshadow="2"
     inkscape:zoom="0.7"
     inkscape:cx="223.90945"
     inkscape:cy="413.45413"
     inkscape:document-units="px"
     inkscape:current-layer="layer2"
     showgrid="false"
     inkscape:snap-global="false"
     inkscape:window-width="2511"
     inkscape:window-height="1056"
     inkscape:window-x="49"
     inkscape:window-y="24"
     inkscape:window-maximized="1"
     fit-margin-top="1"
     fit-margin-left="1"
     fit-margin-right="1"
     fit-margin-bottom="1" />
  <metadata
     id="metadata7">
    <rdf:RDF>
      <cc:Work
         rdf:about="">
        <dc:format>image/svg+xml</dc:format>
        <dc:type
           rdf:resource="http://purl.org/dc/dcmitype/StillImage" />
        <dc:title>Rawr Dinosaur</dc:title>
        <dc:creator>
          <cc:Agent>
            <dc:title>Tavin</dc:title>
          </cc:Agent>
        </dc:creator>
        <dc:source>tavinsorigami.com</dc:source>
        <dc:subject>
          <rdf:Bag>
            <rdf:li>dinsosaur</rdf:li>
            <rdf:li>green</rdf:li>
            <rdf:li>comic</rdf:li>
            <rdf:li>thick outline</rdf:li>
          </rdf:Bag>
        </dc:subject>
        <cc:license
           rdf:resource="http://creativecommons.org/publicdomain/zero/1.0/" />
      </cc:Work>
      <cc:License
         rdf:about="http://creativecommons.org/publicdomain/zero/1.0/">
        <cc:permits
           rdf:resource="http://creativecommons.org/ns#Reproduction" />
        <cc:permits
           rdf:resource="http://creativecommons.org/ns#Distribution" />
        <cc:permits
           rdf:resource="http://creativecommons.org/ns#DerivativeWorks" />
      </cc:License>
    </rdf:RDF>
  </metadata>
  <g
     inkscape:label="Layer 1"
     inkscape:groupmode="layer"
     id="layer1"
     transform="translate(-50.808614,-145.37548)">
    <flowRoot
       xml:space="preserve"
       id="flowRoot4707"
       style="font-style:normal;font-weight:normal;font-size:40px;line-height:125%;font-family:sans-serif;letter-spacing:0px;word-spacing:0px;fill:#000000;fill-opacity:1;stroke:none;stroke-width:1px;stroke-linecap:butt;stroke-linejoin:miter;stroke-opacity:1"><flowRegion
         id="flowRegion4709"><rect
           id="rect4711"
           width="3014.2952"
           height="1814.234"
           x="-3260.7725"
           y="-963.90228" /></flowRegion><flowPara
         id="flowPara4713" /></flowRoot>    <g
       id="g4177"
       transform="matrix(0.7687595,0,0,0.7687595,339.43981,217.80097)">
      <g
         id="g4715">
        <path
           style="opacity:1;fill:#8fc34b;fill-opacity:1;fill-rule:evenodd;stroke:#000000;stroke-width:11.14011383;stroke-linecap:butt;stroke-linejoin:round;stroke-miterlimit:4;stroke-dasharray:none;stroke-opacity:1"
           d="M 132.02124,739.32303 C 128.1691,704.58699 143.35476,613.5443 106.75681,628.67576 84.765796,644.49638 78.233315,683.43461 86.071666,714.4766 c -32.995139,3.64832 -45.805629,36.59695 -45.925603,31.61771 15.82005,0.20091 71.260287,-2.09149 91.875177,-6.77128 z"
           id="path4180-6-3"
           inkscape:connector-curvature="0"
           sodipodi:nodetypes="ccccc" />
        <path
           style="opacity:1;fill:#1c8449;fill-opacity:1;fill-rule:evenodd;stroke:#000000;stroke-width:7.62448359;stroke-linecap:butt;stroke-linejoin:round;stroke-miterlimit:4;stroke-dasharray:none;stroke-opacity:1"
           d="m 391.78889,198.16624 30.43517,57.14277 c 40.72674,-1.40802 32.23752,-74.3271 -30.43517,-57.14277 z"
           id="path4188"
           inkscape:connector-curvature="0"
           sodipodi:nodetypes="ccc" />
        <path
           style="opacity:1;fill:#1c8449;fill-opacity:1;fill-rule:evenodd;stroke:#000000;stroke-width:7.62448359;stroke-linecap:butt;stroke-linejoin:round;stroke-miterlimit:4;stroke-dasharray:none;stroke-opacity:1"
           d="m 424.3909,264.84828 13.83137,48.50878 c 34.78364,2.80381 41.86818,-61.54402 -13.83137,-48.50878 z"
           id="path4188-9"
           inkscape:connector-curvature="0"
           sodipodi:nodetypes="ccc" />
        <path
           style="opacity:1;fill:#1c8449;fill-opacity:1;fill-rule:evenodd;stroke:#000000;stroke-width:5.67187166;stroke-linecap:butt;stroke-linejoin:round;stroke-miterlimit:4;stroke-dasharray:none;stroke-opacity:1"
           d="m 442.33419,326.79193 9.18221,39.87478 c 34.78363,2.80381 46.51734,-52.91002 -9.18221,-39.87478 z"
           id="path4188-9-2"
           inkscape:connector-curvature="0"
           sodipodi:nodetypes="ccc" />
        <path
           style="opacity:1;fill:#1c8449;fill-opacity:1;fill-rule:evenodd;stroke:#000000;stroke-width:3.99820495;stroke-linecap:butt;stroke-linejoin:round;stroke-miterlimit:4;stroke-dasharray:none;stroke-opacity:1"
           d="m 353.9906,148.6214 34.42008,31.90493 c 42.25192,5.4435 -5.71985,-82.770504 -34.42008,-31.90493 z"
           id="path4188-8"
           inkscape:connector-curvature="0"
           sodipodi:nodetypes="ccc" />
        <path
           style="opacity:1;fill:#1c8449;fill-opacity:1;fill-rule:evenodd;stroke:#000000;stroke-width:7.90342808;stroke-linecap:butt;stroke-linejoin:round;stroke-miterlimit:4;stroke-dasharray:none;stroke-opacity:1"
           d="m 264.219,123.89948 69.62028,12.64447 c 13.22922,1.97567 -7.32192,-30.24486 -18.02456,-32.83014 -6.56682,-1.58627 -28.65541,5.66403 -51.59572,20.18567 z"
           id="path4188-8-3"
           inkscape:connector-curvature="0"
           sodipodi:nodetypes="ccsc" />
        <path
           style="opacity:1;fill:#1c8449;fill-opacity:1;fill-rule:evenodd;stroke:#000000;stroke-width:8.74026108;stroke-linecap:butt;stroke-linejoin:round;stroke-miterlimit:4;stroke-dasharray:none;stroke-opacity:1"
           d="m 197.35303,134.24499 49.69564,-9.27261 c 13.22922,1.97567 -9.02414,-16.46214 -19.68493,-19.21499 -10.54727,-2.72354 -15.17626,11.65 -30.01071,28.4876 z"
           id="path4188-8-3-2"
           inkscape:connector-curvature="0"
           sodipodi:nodetypes="ccsc" />
        <path
           style="opacity:1;fill:#1c8449;fill-opacity:1;fill-rule:evenodd;stroke:#000000;stroke-width:5.67187166;stroke-linecap:butt;stroke-linejoin:round;stroke-miterlimit:4;stroke-dasharray:none;stroke-opacity:1"
           d="m 471.64801,553.00542 -3.49769,38.46589 c 31.83129,5.55938 44.94038,-38.19475 3.49769,-38.46589 z"
           id="path4188-9-2-7"
           inkscape:connector-curvature="0"
           sodipodi:nodetypes="ccc" />
        <path
           style="opacity:1;fill:#1c8449;fill-opacity:1;fill-rule:evenodd;stroke:#000000;stroke-width:4.92802;stroke-linecap:butt;stroke-linejoin:round;stroke-miterlimit:4;stroke-dasharray:none;stroke-opacity:1"
           d="m 476.9725,622.27186 48.63091,19.21116 c 15.92011,0.98001 -8.81242,-20.76224 -13.25005,-26.71122 -6.71959,-9.00794 -30.03628,-3.33806 -35.38086,7.50006 z"
           id="path4188-9-2-7-3"
           inkscape:connector-curvature="0"
           sodipodi:nodetypes="ccsc" />
        <path
           style="opacity:1;fill:#1c8449;fill-opacity:1;fill-rule:evenodd;stroke:#000000;stroke-width:4.09118652;stroke-linecap:butt;stroke-linejoin:round;stroke-miterlimit:4;stroke-dasharray:none;stroke-opacity:1"
           d="m 540.92527,639.6125 43.46505,16.86302 c -5.26954,-6.00609 -13.81231,-30.07881 -18.67515,-29.95069 -5.28963,3.49552 -19.54639,8.25513 -24.7899,13.08767 z"
           id="path4188-9-2-7-3-8"
           inkscape:connector-curvature="0"
           sodipodi:nodetypes="cccc" />
        <path
           style="opacity:1;fill:#1c8449;fill-opacity:1;fill-rule:evenodd;stroke:#000000;stroke-width:4.09118652;stroke-linecap:butt;stroke-linejoin:round;stroke-miterlimit:4;stroke-dasharray:none;stroke-opacity:1"
           d="m 587.58135,657.10143 46.75249,10.28823 c -5.26954,-6.00609 -26.02264,-31.01806 -30.88557,-30.88994 -5.28953,3.49552 -10.62342,15.76917 -15.86692,20.60171 z"
           id="path4188-9-2-7-3-8-4"
           inkscape:connector-curvature="0"
           sodipodi:nodetypes="cccc" />
        <path
           style="opacity:1;fill:#1c8449;fill-opacity:1;fill-rule:evenodd;stroke:#000000;stroke-width:4.09118652;stroke-linecap:butt;stroke-linejoin:round;stroke-miterlimit:4;stroke-dasharray:none;stroke-opacity:1"
           d="m 653.77804,675.32257 43.46505,7.47047 c -8.96277,-22.73981 -23.56254,-32.48943 -43.46505,-7.47047 z"
           id="path4188-9-2-7-3-8-4-7"
           inkscape:connector-curvature="0"
           sodipodi:nodetypes="ccc" />
        <path
           style="opacity:1;fill:#000000;fill-rule:evenodd;stroke:#000000;stroke-width:0.92981505px;stroke-linecap:butt;stroke-linejoin:miter;stroke-opacity:1"
           d="m 329.58835,459.81036 c -18.6718,-22.31702 -40.3629,6.24288 -56.45298,-12.61891 2.26243,22.52667 -16.95676,21.63525 -24.57371,6.30946 l -14.61139,28.89068 c 41.76943,2.36295 64.94414,-13.86874 95.63808,-22.58123 z"
           id="path4540"
           inkscape:connector-curvature="0"
           sodipodi:nodetypes="ccccc" />
        <path
           style="opacity:1;fill:#8fc34b;fill-opacity:1;fill-rule:evenodd;stroke:#000000;stroke-width:13.76126289;stroke-linecap:butt;stroke-linejoin:round;stroke-miterlimit:4;stroke-dasharray:none;stroke-opacity:1"
           d="m 80.068798,327.32334 c -5.927441,-46.67073 8.5719,-85.35427 31.817502,-116.09287 23.14552,-26.58373 51.22378,-54.15291 80.44266,-69.39686 72.07498,-37.0945 162.8758,-9.25794 213.10069,60.22991 39.9959,112.0935 76.4321,240.56475 16.05837,289.15983 28.49744,-9.36974 29.64817,-77.44024 81.24566,-98.62178 25.79121,31.05051 14.61009,83.17466 -50.71983,148.4023 14.30055,10.87666 26.47518,26.61243 23.48136,77.01892 l -12.21033,9.39254 30.99548,2.81777 216.96788,64.8086 c -88.36925,21.65592 -270.91929,77.01272 -282.71576,12.21032 l 4.69631,17.37621 5.63552,14.08883 -111.30175,0.46962 c 8.85472,-17.24029 4.7866,-33.76906 25.82952,-34.75243 2.77392,-100.14184 37.35653,-74.50986 48.37168,-90.16848 0,0 -29.86576,-2.45886 -46.49317,48.84126 l -6.57482,34.75243 c -9.6273,9.07968 -21.03576,7.47252 -27.23837,37.10058 l -209.92356,4.69627 c 0.94402,-57.74401 15.5303,-70.68108 5.13877,-180.68196 -3.23988,-34.29604 -2.65724,-66.07331 -5.91298,-95.68865 -5.62411,-51.15887 -16.179775,-95.86646 -30.690832,-135.96236 z"
           id="path4180"
           inkscape:connector-curvature="0"
           sodipodi:nodetypes="cccccccccccccccccccccssc" />
        <path
           style="fill:#000000;fill-rule:evenodd;stroke:#000000;stroke-width:0.92981505px;stroke-linecap:butt;stroke-linejoin:miter;stroke-opacity:1"
           d="m 134.98378,349.72369 c 17.09386,42.68254 30.10215,85.35777 25.56996,134.82319 65.7462,7.3403 146.05953,2.0632 216.51413,-35.53223 8.50279,7.30449 12.55362,3.32124 15.49388,-3.89595 1.97418,-4.84573 3.81243,-11.69645 4.79599,-15.51899 13.17641,-51.73883 -7.63174,-121.06163 -27.59561,-145.62723 -207.88982,25.00086 -188.58231,37.25058 -233.45002,66.08328 z"
           id="path4178"
           inkscape:connector-curvature="0"
           sodipodi:nodetypes="cccscccc" />
        <path
           style="fill:#cb1d3b;fill-opacity:1;fill-rule:evenodd;stroke:#cb1d3b;stroke-width:12.92442894;stroke-linecap:butt;stroke-linejoin:miter;stroke-miterlimit:4;stroke-dasharray:none;stroke-opacity:1"
           d="m 383.71688,357.19864 -0.55017,63.53084 c -27.64293,41.74431 -77.25926,49.05797 -126.4171,54.94405 4.64573,-44.12673 -25.87247,-108.02862 126.96727,-118.47489 z"
           id="path4186"
           inkscape:connector-curvature="0"
           sodipodi:nodetypes="cccc" />
        <path
           style="fill:#ffffff;fill-rule:evenodd;stroke:#000000;stroke-width:2.66113067;stroke-linecap:butt;stroke-linejoin:miter;stroke-miterlimit:4;stroke-dasharray:none;stroke-opacity:1"
           d="m 147.19676,342.58479 c 41.21647,-19.255 73.61039,-41.90896 160.71556,-46.90128 -6.43423,13.05863 -2.28707,26.59302 -8.63864,34.55313 -4.48598,-3.5731 -7.5501,-7.85713 -10.16827,-12.36416 -2.81539,-4.37309 -9.09796,-6.23507 -10.7044,-3.35571 -2.22384,3.98621 0.40224,14.31797 -3.29703,15.05761 -25.92353,-30.26311 -32.2088,-0.71232 -33.00751,16.5074 -15.86599,-7.85438 -18.16124,-14.66486 -16.88488,-21.20059 0,0 -18.69133,-3.53741 -15.95879,21.11506 -6.08136,0.70284 -12.06844,1.07615 -15.54576,-7.33486 -12.70444,-16.21117 -29.49718,22.30319 -24.76851,38.3128 -21.4009,0.20162 -20.71926,-22.24053 -21.74177,-34.3894 z"
           id="path4158"
           inkscape:connector-curvature="0"
           sodipodi:nodetypes="ccccsccccccc" />
        <path
           style="fill:#000000;fill-rule:evenodd;stroke:#000000;stroke-width:1.30174112;stroke-linecap:butt;stroke-linejoin:round;stroke-miterlimit:4;stroke-dasharray:none;stroke-opacity:1"
           d="m 116.50711,310.18439 c -2.75029,-19.4266 18.36276,-76.50875 54.82755,-25.19801 17.64966,22.81934 -22.30951,52.92111 -54.82755,25.19801 z"
           id="path4162"
           inkscape:connector-curvature="0"
           sodipodi:nodetypes="ccc" />
        <path
           style="fill:#ffffff;fill-rule:evenodd;stroke:#ffffff;stroke-width:1.48770416;stroke-linecap:butt;stroke-linejoin:round;stroke-miterlimit:4;stroke-dasharray:none;stroke-opacity:1"
           d="m 141.95743,293.6027 c 31.65686,0.82328 7.35029,-24.20581 0.81806,-13.45562 -1.15065,2.15415 -0.81806,6.38953 -0.81806,13.45562 z"
           id="path4166"
           inkscape:connector-curvature="0"
           sodipodi:nodetypes="ccc" />
        <path
           style="fill:#000000;fill-rule:evenodd;stroke:#000000;stroke-width:0.92981505px;stroke-linecap:butt;stroke-linejoin:miter;stroke-opacity:1"
           d="m 331.36188,192.93619 c -11.4145,-15.34356 -29.89439,-21.97542 -48.5343,-15.5308 -8.40162,2.98772 -15.09629,9.19459 -20.79736,17.53275 -6.47644,9.69656 -9.01846,21.40699 -7.81854,32.76357 3.4525,24.75377 22.1203,40.06591 45.64602,40.62054 17.0198,-1.41619 33.51565,-14.49055 37.48531,-40.29377 1.15148,-13.08162 -1.26976,-26.56679 -5.98113,-35.09229 z"
           id="path4170"
           inkscape:connector-curvature="0"
           sodipodi:nodetypes="ccccccc" />
        <path
           style="fill:#ffffff;fill-rule:evenodd;stroke:#ffffff;stroke-width:1.85963011;stroke-linecap:butt;stroke-linejoin:round;stroke-miterlimit:4;stroke-dasharray:none;stroke-opacity:1"
           d="m 295.37692,210.74953 c 16.5309,2.21586 19.33681,-18.93227 14.09711,-24.5487 -4.8752,-3.16208 -13.49133,-1.65733 -18.25013,3.3076 -6.33771,5.97379 -5.08981,12.96092 -1.82429,16.59204 5.60669,-1.55809 7.53131,-0.1172 5.97731,4.64906 z"
           id="path4172"
           inkscape:connector-curvature="0"
           sodipodi:nodetypes="ccccc" />
        <path
           style="fill:none;fill-rule:evenodd;stroke:#000000;stroke-width:3.25435281;stroke-linecap:butt;stroke-linejoin:miter;stroke-miterlimit:4;stroke-dasharray:none;stroke-opacity:1"
           d="m 337.81377,178.45141 c -20.31543,-31.11618 -60.11235,-29.6121 -72.32269,-14.08882"
           id="path4182"
           inkscape:connector-curvature="0"
           sodipodi:nodetypes="cc" />
        <path
           style="fill:#ffffff;fill-opacity:1;fill-rule:evenodd;stroke:#000000;stroke-width:8.0131464;stroke-linecap:butt;stroke-linejoin:miter;stroke-miterlimit:4;stroke-dasharray:none;stroke-opacity:1"
           d="m 360.70749,284.76228 c 3.95627,34.33139 -2.51933,73.26533 -20.63203,83.74169 -12.80067,-28.94639 -20.49015,-57.60423 -49.45612,-70.39156 22.15648,-14.0999 46.06143,-14.21215 70.08815,-13.35013 z"
           id="path4160"
           inkscape:connector-curvature="0"
           sodipodi:nodetypes="cccc" />
        <path
           style="fill:#000000;fill-rule:evenodd;stroke:#000000;stroke-width:4.2771492;stroke-linecap:butt;stroke-linejoin:round;stroke-miterlimit:4;stroke-dasharray:none;stroke-opacity:1"
           d="M 127.01397,356.36522 C 193.54683,300.31366 276.90782,278.97 371.75463,281.31587 l -2.65667,4.64907 c -81.77035,3.92009 -162.07551,23.31304 -242.08399,70.40028 z"
           id="path4176"
           inkscape:connector-curvature="0"
           sodipodi:nodetypes="cccc" />
        <path
           style="fill:#000000;fill-rule:evenodd;stroke:none;stroke-width:1px;stroke-linecap:butt;stroke-linejoin:miter;stroke-opacity:1"
           d="m 370.68766,283.64798 c 32.14269,95.25493 30.69311,123.82116 18.59751,161.33089 -0.053,-5.60251 -5.02007,1.5235 -5.03801,-4.01595 -0.17304,-53.23777 -5.3522,-104.67303 -22.01282,-152.61867 z"
           id="path4418"
           inkscape:connector-curvature="0"
           sodipodi:nodetypes="ccscc" />
        <path
           style="opacity:1;fill:#ffffff;fill-opacity:1;fill-rule:evenodd;stroke:#000000;stroke-width:3.0202322;stroke-linecap:butt;stroke-linejoin:round;stroke-miterlimit:4;stroke-dasharray:none;stroke-opacity:1"
           d="m 194.12276,486.55587 c -2.82218,-12.73688 -12.82364,-23.58605 -21.20648,-33.14541 1.4931,21.96111 -10.31825,20.53747 -13.6933,31.59453 z"
           id="path4160-8"
           inkscape:connector-curvature="0"
           sodipodi:nodetypes="cccc" />
        <path
           style="opacity:1;fill:#ffffff;fill-opacity:1;fill-rule:evenodd;stroke:#000000;stroke-width:2.38544869;stroke-linecap:butt;stroke-linejoin:round;stroke-miterlimit:4;stroke-dasharray:none;stroke-opacity:1"
           d="m 234.22531,482.78543 c -7.00839,-3.71346 -11.55732,-7.48678 -10.50022,-10.59799 0.83888,-2.46899 -0.44817,-4.67431 -2.31607,-6.8539 -8.56602,-14.41103 -14.37494,13.79235 -14.46895,21.55375 z"
           id="path4160-8-0"
           inkscape:connector-curvature="0"
           sodipodi:nodetypes="csccc" />
        <path
           style="opacity:1;fill:#ffffff;fill-opacity:1;fill-rule:evenodd;stroke:#000000;stroke-width:2.38544869;stroke-linecap:butt;stroke-linejoin:round;stroke-miterlimit:4;stroke-dasharray:none;stroke-opacity:1"
           d="m 265.85725,477.12877 c -6.49225,-5.3572 -10.55182,-12.29534 -15.47296,-18.11605 -15.37682,8.29177 -9.67929,15.74045 -9.48774,22.54999 z"
           id="path4160-8-0-3"
           inkscape:connector-curvature="0"
           sodipodi:nodetypes="cccc" />
        <path
           style="fill:#000000;fill-rule:evenodd;stroke:#000000;stroke-width:4.2771492;stroke-linecap:butt;stroke-linejoin:round;stroke-miterlimit:4;stroke-dasharray:none;stroke-opacity:1"
           d="m 159.5367,484.20622 c 83.63157,3.37122 139.74117,7.67085 220.71969,-34.87145 l -2.02476,-7.24842 c -71.96518,39.02277 -125.86637,40.92864 -218.69493,42.11987 z"
           id="path4176-8"
           inkscape:connector-curvature="0"
           sodipodi:nodetypes="cccc" />
        <path
           style="opacity:1;fill:#ffffff;fill-opacity:1;fill-rule:evenodd;stroke:#000000;stroke-width:5.17535067;stroke-linecap:butt;stroke-linejoin:round;stroke-miterlimit:4;stroke-dasharray:none;stroke-opacity:1"
           d="m 375.55543,451.78624 c -11.31473,-63.1826 -33.34447,-53.10988 -33.05548,7.68795 6.21711,-4.56673 26.83837,-7.3169 33.05548,-7.68795 z"
           id="path4160-8-0-3-5-3"
           inkscape:connector-curvature="0"
           sodipodi:nodetypes="ccc" />
        <path
           style="fill:#000000;fill-rule:evenodd;stroke:#000000;stroke-width:0.92981505px;stroke-linecap:butt;stroke-linejoin:miter;stroke-opacity:1"
           d="m 351.17336,463.46322 c -29.98291,-17.4642 -35.09792,-1.96781 -72.39271,-17.93216 l -9.29815,38.52091 z"
           id="path4557"
           inkscape:connector-curvature="0"
           sodipodi:nodetypes="cccc" />
        <path
           style="opacity:1;fill:#ffffff;fill-opacity:1;fill-rule:evenodd;stroke:#000000;stroke-width:2.38544869;stroke-linecap:butt;stroke-linejoin:round;stroke-miterlimit:4;stroke-dasharray:none;stroke-opacity:1"
           d="m 294.18276,473.95711 c 1.14562,-8.3459 -8.22728,-11.29911 -13.14833,-17.11982 -15.37691,8.29176 -13.66428,12.75175 -13.47274,19.56129 6.21711,-4.56673 20.40405,-2.07042 26.62107,-2.44147 z"
           id="path4160-8-0-3-5"
           inkscape:connector-curvature="0"
           sodipodi:nodetypes="cccc" />
        <path
           style="fill:#009143;fill-opacity:1;fill-rule:evenodd;stroke:#000000;stroke-width:8.20933723;stroke-linecap:butt;stroke-linejoin:round;stroke-miterlimit:4;stroke-dasharray:none;stroke-opacity:1"
           d="m 320.20847,726.2179 -9.85892,0.56337 -115.39135,6.59379 c -3.84777,-43.38376 -20.51238,-73.81344 -15.46934,-102.96828 12.591,-72.79123 106.49023,-89.26336 138.2158,-20.6996 10.96252,23.69162 12.90295,57.492 13.18339,95.04436 0.0437,5.87229 -16.69958,11.17763 -13.88233,20.40985 z"
           id="path4559"
           inkscape:connector-curvature="0"
           sodipodi:nodetypes="cccssscc" />
        <path
           style="fill:none;fill-rule:evenodd;stroke:#000000;stroke-width:4.2771492;stroke-linecap:butt;stroke-linejoin:round;stroke-miterlimit:4;stroke-dasharray:none;stroke-opacity:1"
           d="m 220.40686,605.81246 70.44409,-14.08882"
           id="path4561"
           inkscape:connector-curvature="0" />
        <path
           style="fill:none;fill-rule:evenodd;stroke:#000000;stroke-width:4.2771492;stroke-linecap:butt;stroke-linejoin:round;stroke-miterlimit:4;stroke-dasharray:none;stroke-opacity:1"
           d="M 258.44671,698.32909 328.8908,684.24026"
           id="path4561-9"
           inkscape:connector-curvature="0" />
        <path
           style="fill:none;fill-rule:evenodd;stroke:#000000;stroke-width:5.16791201;stroke-linecap:butt;stroke-linejoin:round;stroke-miterlimit:4;stroke-dasharray:none;stroke-opacity:1"
           d="M 190.71554,645.49304 313.02825,631.87976"
           id="path4561-6"
           inkscape:connector-curvature="0" />
        <path
           style="fill:none;fill-rule:evenodd;stroke:#000000;stroke-width:4.2771492;stroke-linecap:butt;stroke-linejoin:round;stroke-miterlimit:4;stroke-dasharray:none;stroke-opacity:1"
           d="m 252.32304,672.61597 71.42021,-7.74682"
           id="path4561-9-0"
           inkscape:connector-curvature="0" />
        <path
           style="fill:none;fill-rule:evenodd;stroke:#000000;stroke-width:4.2771492;stroke-linecap:butt;stroke-linejoin:round;stroke-miterlimit:4;stroke-dasharray:none;stroke-opacity:1"
           d="M 216.1802,722.74973 286.62429,708.6609"
           id="path4561-9-4"
           inkscape:connector-curvature="0" />
        <path
           style="opacity:1;fill:#8fc34b;fill-opacity:1;fill-rule:evenodd;stroke:#000000;stroke-width:11.14011383;stroke-linecap:butt;stroke-linejoin:round;stroke-miterlimit:4;stroke-dasharray:none;stroke-opacity:1"
           d="m 114.73974,526.85256 -2.42384,-12.90112 c -0.67869,-48.533 -6.56042,28.28038 -1.3129,-60.6534 2.49435,-42.27363 -36.951872,-68.84416 -82.825898,-62.04257 -7.445318,64.41212 97.349028,98.71837 86.562638,135.59709 z"
           id="path4180-6"
           inkscape:connector-curvature="0"
           sodipodi:nodetypes="ccscc" />
      </g>
    </g>
  </g>
  <g
     inkscape:groupmode="layer"
     id="layer2"
     inkscape:label="Layer 2"
     transform="translate(-28.575533,-124.65703)">
    <g
       id="g3648"
       transform="matrix(0.90490866,0,0,0.90490866,37.135618,164.59176)">
      <g
         id="g376"
         transform="matrix(6.490298,0,0,-6.490298,212.84938,252.95316)">
        <path
           d="m 0,0 c 0,-7.534 -6.107,-13.642 -13.641,-13.642 -7.535,0 -13.642,6.108 -13.642,13.642 0,7.534 6.107,13.642 13.642,13.642 C -6.107,13.642 0,7.534 0,0"
           style="fill:#ff6600;fill-opacity:1;fill-rule:nonzero;stroke:none"
           id="path378"
           inkscape:connector-curvature="0" />
      </g>
      <g
         id="g404"
         transform="matrix(6.490298,0,0,-6.490298,387.96089,128.99754)">
        <path
           d="m 0,0 c 0,-7.533 -6.107,-13.642 -13.641,-13.642 -7.535,0 -13.642,6.109 -13.642,13.642 0,7.534 6.107,13.643 13.642,13.643 C -6.107,13.643 0,7.534 0,0"
           style="fill:#ffcc00;fill-opacity:1;fill-rule:nonzero;stroke:none"
           id="path406"
           inkscape:connector-curvature="0" />
      </g>
      <g
         id="g408"
         transform="matrix(6.490298,0,0,-6.490298,171.53084,127.03292)">
        <path
           d="m 0,0 c 0,-7.533 -6.107,-13.642 -13.642,-13.642 -7.533,0 -13.641,6.109 -13.641,13.642 0,7.534 6.108,13.643 13.641,13.643 C -6.107,13.643 0,7.534 0,0"
           style="fill:#0089cc;fill-opacity:1;fill-rule:nonzero;stroke:none"
           id="path410"
           inkscape:connector-curvature="0" />
      </g>
      <g
         id="g412"
         transform="matrix(6.490298,0,0,-6.490298,348.61343,252.95316)">
        <path
           d="m 0,0 c 0,-7.534 -6.107,-13.642 -13.643,-13.642 -7.533,0 -13.641,6.108 -13.641,13.642 0,7.534 6.108,13.642 13.641,13.642 C -6.107,13.642 0,7.534 0,0"
           style="fill:#009939;fill-opacity:1;fill-rule:nonzero;stroke:none"
           id="path414"
           inkscape:connector-curvature="0" />
      </g>
      <g
         id="g416"
         transform="matrix(6.490298,0,0,-6.490298,279.74878,48.325072)">
        <path
           d="m 0,0 c 0,-7.534 -6.108,-13.642 -13.642,-13.642 -7.534,0 -13.642,6.108 -13.642,13.642 0,7.534 6.108,13.642 13.642,13.642 C -6.108,13.642 0,7.534 0,0"
           style="fill:#bf0000;fill-opacity:1;fill-rule:nonzero;stroke:none"
           id="path418"
           inkscape:connector-curvature="0" />
      </g>
      <g
         id="g420"
         transform="matrix(6.490298,0,0,-6.490298,210.88478,128.99754)">
        <path
           d="M 0,0 C 0,-0.287 0.025,-0.568 0.043,-0.851 6.094,0.545 10.61,5.955 10.61,12.43 c 0,0.287 -0.025,0.569 -0.043,0.852 C 4.516,11.885 0,6.475 0,0"
           style="fill:#fc0007;fill-opacity:1;fill-rule:nonzero;stroke:none"
           id="path422"
           inkscape:connector-curvature="0" />
      </g>
      <g
         id="g424"
         transform="matrix(6.490298,0,0,-6.490298,222.56598,172.83885)">
        <path
           d="m 0,0 c 2.351,-4.11 6.769,-6.887 11.843,-6.887 2.068,0 4.021,0.474 5.778,1.298 -2.35,4.11 -6.768,6.887 -11.843,6.887 C 3.71,1.298 1.757,0.824 0,0"
           style="fill:#1cd306;fill-opacity:1;fill-rule:nonzero;stroke:none"
           id="path426"
           inkscape:connector-curvature="0" />
      </g>
      <g
         id="g428"
         transform="matrix(6.490298,0,0,-6.490298,171.53084,252.95316)">
        <path
           d="M 0,0 C 0,-3.333 1.198,-6.383 3.184,-8.752 5.168,-6.383 6.366,-3.333 6.366,0 6.366,3.333 5.168,6.383 3.184,8.752 1.198,6.383 0,3.333 0,0"
           style="fill:#0f7504;fill-opacity:1;fill-rule:nonzero;stroke:none"
           id="path430"
           inkscape:connector-curvature="0" />
      </g>
      <g
         id="g432"
         transform="matrix(6.490298,0,0,-6.490298,47.93609,208.32327)">
        <path
           d="m 0,0 c 1.657,-0.716 3.481,-1.117 5.401,-1.117 5.024,0 9.401,2.723 11.769,6.766 C 15.513,6.365 13.688,6.765 11.769,6.765 6.745,6.765 2.367,4.042 0,0"
           style="fill:#0c5e87;fill-opacity:1;fill-rule:nonzero;stroke:none"
           id="path434"
           inkscape:connector-curvature="0" />
      </g>
      <g
         id="g436"
         transform="matrix(6.490298,0,0,-6.490298,103.04718,40.855409)">
        <path
           d="m 0,0 c -0.032,-0.38 -0.059,-0.762 -0.059,-1.151 0,-6.47 4.509,-11.875 10.553,-13.277 0.031,0.38 0.058,0.762 0.058,1.15 C 10.552,-6.808 6.044,-1.401 0,0"
           style="fill:#6b0001;fill-opacity:1;fill-rule:nonzero;stroke:none"
           id="path438"
           inkscape:connector-curvature="0" />
      </g>
      <g
         id="g482"
         transform="matrix(-6.490298,0,0,-6.490298,257.27873,241.99749)">
        <path
           d="M 0,0 -2.134,0 C -4.018,0 -5.55,1.527 -5.55,3.406 l 0,19.316 c 0,1.879 1.532,3.407 3.416,3.407 l 26.759,0 c 1.884,0 3.415,-1.528 3.415,-3.407 l 0,-19.316 C 28.04,1.527 26.509,0 24.625,0 L 15.509,0 -2.781,-8.966 0,0 Z"
           style="fill:#ffffff;fill-opacity:1;fill-rule:nonzero;stroke:none"
           id="path484"
           inkscape:connector-curvature="0" />
        <text
           transform="scale(-1.0002415,-0.99975854)"
           sodipodi:linespacing="125%"
           id="text3636"
           y="-8.319458"
           x="-11.542574"
           style="font-style:normal;font-weight:normal;font-size:6.06505919px;line-height:125%;font-family:sans-serif;letter-spacing:0px;word-spacing:0px;fill:#000000;fill-opacity:1;stroke:none;stroke-width:1px;stroke-linecap:butt;stroke-linejoin:miter;stroke-opacity:1"
           xml:space="preserve"><tspan
             style="font-style:normal;font-variant:normal;font-weight:bold;font-stretch:normal;font-size:15.16264725px;line-height:125%;font-family:'Ubuntu Mono';-inkscape-font-specification:'Ubuntu Mono, Bold';text-align:center;writing-mode:lr-tb;text-anchor:middle"
             y="-8.319458"
             x="-11.542574"
             id="tspan3638"
             sodipodi:role="line">RAWR</tspan></text>
      </g>
    </g>
  </g>
</svg>
